<svg xmlns="http://www.w3.org/2000/svg" viewBox="0 0 512 512" role="img" aria-label="WeaWow app icon">
  <defs>
    <linearGradient id="sky" x1="72" y1="56" x2="430" y2="456" gradientUnits="userSpaceOnUse">
      <stop stop-color="#63d4ff"/>
      <stop offset=".48" stop-color="#4f7dff"/>
      <stop offset="1" stop-color="#1b2148"/>
    </linearGradient>
    <radialGradient id="sun" cx="0" cy="0" r="1" gradientTransform="matrix(156 0 0 156 334 148)" gradientUnits="userSpaceOnUse">
      <stop stop-color="#fff7b0"/>
      <stop offset=".42" stop-color="#ffd15c"/>
      <stop offset="1" stop-color="#ff8a48" stop-opacity="0"/>
    </radialGradient>
    <filter id="shadow" x="80" y="154" width="352" height="222" color-interpolation-filters="sRGB" filterUnits="userSpaceOnUse">
      <feDropShadow dx="0" dy="18" stdDeviation="18" flood-color="#07111f" flood-opacity=".28"/>
    </filter>
  </defs>
  <rect width="512" height="512" rx="116" fill="url(#sky)"/>
  <circle cx="334" cy="148" r="156" fill="url(#sun)"/>
  <path d="M108 349c0-44 35-79 78-79 7 0 14 1 21 3 20-42 62-70 111-70 68 0 123 55 123 123 0 7-1 15-2 22H108Z" fill="#f8fbff" filter="url(#shadow)"/>
  <path d="M103 349c6-35 36-61 73-61 16 0 31 5 43 14 20-34 57-57 100-57 55 0 101 39 112 91-20-64-99-75-139-25-32-20-73-13-96 16-32-15-70-6-93 22Z" fill="#d9eeff" opacity=".72"/>
  <path d="M143 386h214" stroke="#c1f2ff" stroke-width="26" stroke-linecap="round" opacity=".82"/>
  <path d="M198 425h116" stroke="#fff3a6" stroke-width="22" stroke-linecap="round"/>
</svg>
